<svg xmlns="http://www.w3.org/2000/svg" width="120" height="28" viewBox="0 0 120 28">
    <g fill="#020303" fill-rule="evenodd">
        <path d="M21.038 21.901a4.29 4.29 0 0 1-.839 1.303c-.905.857-2.238 1.285-3.998 1.285H8.168v-8.996h7.819c1.546 0 2.825.393 3.838 1.178 1.01.785 1.517 1.976 1.517 3.57 0 .619-.102 1.172-.304 1.66zM8.168 4.64h7.64c1.428 0 2.54.351 3.338 1.053.797.702 1.196 1.672 1.196 2.91 0 1.333-.435 2.362-1.303 3.088-.87.725-2.088 1.088-3.66 1.088H8.17V4.64zm11.823 9.246s-.048-.005-.048-.05c0-.043.048-.057.048-.057 3.357-1.546 3.564-3.927 3.564-5.355 0-.904-.143-1.72-.428-2.445a5.831 5.831 0 0 0-1.214-1.91c-1.405-1.476-3.451-2.214-6.14-2.214H4.954v25.526h11.368c1.378 0 2.607-.214 3.688-.642 1.081-.429 1.977-1.024 2.69-1.785a6.506 6.506 0 0 0 1.372-2.16c.32-.822.481-1.732.481-2.732 0-.857-.141-1.722-.426-2.403-1.24-2.96-3.425-3.606-4.137-3.773zM83.002 24.699c-5.196 0-9.424-4.546-9.424-10.132 0-5.587 4.228-10.133 9.424-10.133 3.963 0 7.36 2.646 8.75 6.38h3.202c-1.535-5.435-6.31-9.41-11.952-9.41-6.877 0-12.472 5.904-12.472 13.163 0 7.258 5.595 13.163 12.472 13.163 6.73 0 12.23-5.659 12.46-12.705h-3.047c-.224 5.375-4.36 9.674-9.413 9.674M55.582 24.699c-5.194 0-9.42-4.546-9.42-10.132 0-5.587 4.226-10.133 9.42-10.133C60.775 4.434 65 8.98 65 14.567c0 5.586-4.226 10.132-9.42 10.132m0-23.296c-6.873 0-12.465 5.905-12.465 13.164 0 7.258 5.592 13.163 12.466 13.163 6.873 0 12.465-5.905 12.465-13.163 0-7.259-5.592-13.164-12.465-13.164M30.63 1.855h-3.205v25.526h16.563v-2.955H30.631zM111.524 10.908h-3.617l8.138-9.053h-4.014l-8.135 9.053h-2.307V1.855h-3.174v25.526h3.174V14.073h9.935c.686 0 1.244.558 1.244 1.244v12.057h3.166V15.317a4.415 4.415 0 0 0-4.41-4.41"/>
    </g>
</svg>
