<?xml version="1.0" encoding="UTF-8"?>
<svg width="135px" height="50px" viewBox="0 0 135 50" version="1.1" xmlns="http://www.w3.org/2000/svg" xmlns:xlink="http://www.w3.org/1999/xlink">
    <!-- Generator: Sketch 52.2 (67145) - http://www.bohemiancoding.com/sketch -->
    <title>fast_company_logo@2x</title>
    <desc>Created with Sketch.</desc>
    <g id="fast_company_logo" stroke="none" stroke-width="1" fill="none" fill-rule="evenodd">
        <g id="Fast_Company_logo" transform="translate(0.000000, 13.000000)">
            <rect id="backgroundrect" x="0" y="0" width="135" height="20"></rect>
            <g id="Layer-1" fill="#000000" fill-rule="nonzero">
                <g id="svg_1">
                    <path d="M118.754237,2.55814166 C118.754237,1.20930445 119.166102,0.744188176 119.852543,0.744188176 C120.538983,0.744188176 121.088136,1.02325794 121.728814,2.55814166 L125.618644,11.5348859 L125.618644,17.2093045 C125.618644,18.5581417 125.069492,18.9302347 123.559322,19.1162812 L123.559322,19.4883742 L130.744068,19.4883742 L130.744068,19.1162812 C129.188136,18.9302347 128.684746,18.51163 128.684746,17.2093045 L128.684746,11.5348859 L132.437288,2.88372306 C133.169492,1.20930445 133.901695,0.837211431 135,0.65116492 L135,0.279071897 L129.737288,0.279071897 L129.737288,0.65116492 C131.522034,0.837211431 132.162712,1.34883934 131.659322,2.55814166 L128.364407,10.2325603 L124.977966,2.37209515 C124.520339,1.30232771 124.794915,0.976746315 126.762712,0.697676548 L126.762712,0.325583524 L115.459322,0.325583524 L115.459322,0.697676548 C117.244068,0.976746315 117.793221,1.30232771 117.793221,2.60465329 L117.793221,13.1162812 L109.51017,0.325583524 L105.437288,0.325583524 L105.437288,0.697676548 C106.764407,0.883723059 107.176271,1.30232771 107.176271,2.60465329 L107.176271,17.2558161 C107.176271,18.6046533 106.81017,19.0697696 106.352543,19.0697696 C105.940678,19.0697696 105.711865,18.8837231 105.116949,17.2558161 L98.9847459,0.232560269 L98.6186442,0.232560269 L92.7152544,16.51163 C92.0745764,18.3255835 91.0677968,18.9302347 90.0610171,19.1627928 L90.0610171,19.5348859 L95.4610171,19.5348859 L95.4610171,19.1627928 C93.5847459,18.9767463 92.9898307,18.2325603 93.4016951,17.0232579 L94.7288137,13.3023277 L100.311865,13.3023277 L101.593221,16.7906998 C102.142373,18.3720952 101.822034,18.8372114 100.220339,19.1162812 L100.220339,19.4883742 L110.471187,19.4883742 L110.471187,19.1162812 C108.686441,18.8372114 108.137288,18.51163 108.137288,17.2093045 L108.137288,4.09302538 L118.159322,19.5348859 L118.754237,19.5348859 L118.754237,2.55814166 Z M46.4949154,9.86046725 C46.4949154,3.90697887 49.2864409,0.790699804 52.5355934,0.790699804 C54.4576273,0.790699804 55.6932205,1.20930445 56.4254239,2.00000213 C56.9745764,2.55814166 57.3864409,3.34883934 57.844068,4.60465329 L58.2101697,4.60465329 L58.2101697,0.604653292 C56.3338985,0.232560269 54.6406781,2.12913336e-06 52.9474578,2.12913336e-06 C48.0508476,2.12913336e-06 42.9711866,3.20930445 42.9711866,9.86046725 C42.9711866,16.51163 48.0508476,19.7209324 52.6271188,19.7209324 C54.6406781,19.7209324 56.4254239,19.395351 58.1186442,18.8837231 L58.6677968,15.1162812 L58.3474578,15.0232579 C57.9355934,15.8139556 57.4322036,16.51163 56.883051,17.1162812 C55.6932205,18.3255835 54.0915256,18.9767463 52.4898307,18.9767463 C49.3779663,18.9302347 46.4949154,15.9069789 46.4949154,9.86046725 Z M87.0864409,10.4186068 C86.6745764,10.4186068 86.1254239,10.3720952 85.5762714,10.2790719 L85.5762714,0.976746315 L87.0864409,0.976746315 C89.60339,0.976746315 90.7016951,2.32558352 90.7016951,5.67442073 C90.7016951,9.06976957 89.5576273,10.4186068 87.0864409,10.4186068 Z M28.2813561,0.279071897 L28.2813561,4.88372306 L28.6474578,4.88372306 C29.1966103,1.9534905 30.3406781,1.02325794 32.262712,1.02325794 L33.1779663,1.02325794 L33.1779663,17.2093045 C33.1779663,18.5581417 32.6288137,18.9302347 31.1186442,19.1162812 L31.1186442,19.4883742 L38.30339,19.4883742 L38.30339,19.1162812 C36.7474578,18.9302347 36.244068,18.51163 36.244068,17.2093045 L36.244068,0.976746315 L37.1593222,0.976746315 C39.0813561,0.976746315 40.2254239,1.90697887 40.7745764,4.83721143 L41.1406781,4.83721143 L41.1406781,0.232560269 L28.2813561,0.232560269 L28.2813561,0.279071897 Z M22.5610171,19.7209324 C25.6728815,19.7209324 28.9677968,17.9069789 28.9677968,14.1860486 C28.9677968,12.0000021 27.823729,10.1860486 25.8101697,9.06976957 L22.2406781,7.06976957 C20.364407,6.00000213 19.8152544,5.02325794 19.8152544,3.62790911 C19.8152544,2.04651376 20.9593222,0.790699804 23.1101697,0.790699804 C24.162712,0.790699804 24.9406781,1.06976957 25.5813561,1.67442073 C26.1305086,2.23256027 26.6796612,3.16279283 27.183051,4.83721143 L27.50339,4.83721143 L27.50339,0.604653292 C26.2220341,0.232560269 24.8949154,2.12913335e-06 23.3389832,2.12913335e-06 C20.2728815,2.12913335e-06 17.9847459,1.9534905 17.9847459,5.25581608 C17.9847459,7.34883934 19.1288137,9.25581608 21.0050849,10.3720952 L24.3000002,12.2325603 C26.1762714,13.3023277 26.7711866,14.3255835 26.7711866,15.8604672 C26.7711866,17.6744207 24.9406781,18.9767463 22.9271188,18.9767463 C21.6000002,18.9767463 20.5016951,18.51163 19.723729,17.7209324 C19.2203392,17.2093045 18.6711866,16.4186068 18.3050849,15.395351 L20.4559324,15.395351 L20.4559324,15.0232579 C19.8610171,14.8837231 19.4949154,14.7906998 18.9915256,13.5813975 L14.7813561,3.39535097 L14.4152544,3.39535097 L10.2966103,13.3488393 C9.7474578,14.6976765 9.38135611,14.9302347 8.74067814,15.0232579 L8.74067814,15.395351 L12.4016951,15.395351 L12.4016951,15.0232579 C11.0745764,14.8837231 10.7084748,14.2325603 11.0288137,13.395351 L11.6694917,11.8139556 L15.3762714,11.8139556 L16.2000002,13.767444 C16.5661019,14.6511649 16.0169493,14.8837231 14.6898307,14.9767463 L14.6898307,15.3488393 L17.6186442,15.3488393 L17.6186442,19.0232579 C19.083051,19.4418626 20.9593222,19.7209324 22.5610171,19.7209324 Z M69.0559324,19.5348859 L74.5016951,4.13953701 L74.9135595,17.2558161 C74.9593222,18.5581417 74.4559324,18.9302347 72.9000002,19.1162812 L72.9000002,19.4883742 L87.9101697,19.4883742 L87.9101697,19.1162812 C86.1254239,18.8372114 85.5762714,18.51163 85.5762714,17.2093045 L85.5762714,11.0232579 C86.1711866,11.1162812 86.7661019,11.1627928 87.223729,11.1627928 C90.8389832,11.1627928 93.9508476,9.81395562 93.9508476,5.72093236 C93.9508476,1.62790911 90.8389832,0.279071897 87.223729,0.279071897 L80.7711866,0.279071897 L80.7711866,0.65116492 C82.0983053,0.837211431 82.5101697,1.25581608 82.5101697,2.55814166 L82.5101697,17.2093045 C82.5101697,18.5581417 81.9610171,19.1162812 80.4508476,19.1162812 L80.4050849,19.1162812 C78.80339,19.1162812 78.1169493,18.51163 78.0711866,17.2558161 L77.5220341,2.60465329 C77.4762714,1.25581608 77.9338985,0.837211431 79.3525425,0.65116492 L79.3525425,0.279071897 L74.9135595,0.279071897 L70.062712,14.0930254 L65.2118646,0.279071897 L60.4525425,0.279071897 L60.4525425,0.65116492 C61.8711866,0.837211431 62.3288137,1.30232771 62.283051,2.60465329 L61.7796612,16.6511649 C61.7338985,18.0465138 61.0016951,18.8837231 59.6745764,19.1162812 L59.6745764,19.4883742 L64.7084748,19.4883742 L64.7084748,19.1162812 C63.4271188,18.9302347 62.6949154,18.0930254 62.7406781,16.6511649 L63.1525425,3.86046725 L68.6898307,19.4883742 L69.0559324,19.5348859 Z M54.4576273,15.4883742 C56.883051,15.4883742 59.9949154,13.3023277 59.9949154,9.86046725 C59.9949154,6.46511841 56.9288137,4.23256027 54.4576273,4.23256027 C52.0322036,4.23256027 48.9203392,6.41860678 48.9203392,9.86046725 C48.9203392,13.2558161 51.9864409,15.4883742 54.4576273,15.4883742 Z M54.4576273,5.02325794 C56.0135595,5.02325794 57.0661019,6.32558352 57.0661019,9.86046725 C57.0661019,13.4418626 55.9677968,14.6976765 54.4576273,14.6976765 C52.9016951,14.6976765 51.8491527,13.395351 51.8491527,9.86046725 C51.8491527,6.2790719 52.9016951,5.02325794 54.4576273,5.02325794 Z M100.083051,12.51163 L95.00339,12.51163 L97.5203392,5.44186259 L100.083051,12.51163 Z M15.1474578,11.0697696 L12.0355934,11.0697696 L13.5915256,7.20930445 L15.1474578,11.0697696 Z M9.19830526,12.0465138 L9.56440695,12.0465138 L9.56440695,6.2790719 L9.19830526,6.2790719 C8.60339,8.32558352 8.00847475,8.7906998 6.91016967,8.7906998 L4.80508492,8.7906998 L4.80508492,0.976746315 L8.14576289,0.976746315 C10.0677968,0.976746315 11.2118646,1.90697887 11.7610171,4.83721143 L12.1271188,4.83721143 L12.1271188,0.232560269 L1.7420182e-07,0.232560269 L1.7420182e-07,0.604653292 C1.32711882,0.790699804 1.73898323,1.20930445 1.73898323,2.51163004 L1.73898323,17.1627928 C1.73898323,18.51163 1.32711882,18.8837231 1.7420182e-07,19.0697696 L1.7420182e-07,19.4418626 L7.13898323,19.4418626 L7.13898323,19.0697696 C5.35423746,18.7906998 4.80508492,18.4651184 4.80508492,17.1627928 L4.80508492,9.48837422 L6.91016967,9.48837422 C7.96271204,9.53488585 8.60339,10.0000021 9.19830526,12.0465138 Z" id="svg_2"></path>
                </g>
            </g>
        </g>
    </g>
</svg>