<svg xmlns="http://www.w3.org/2000/svg" width="17" height="22" viewBox="0 0 17 22">
    <path fill="none" fill-rule="nonzero" stroke="#000" stroke-width=".88" d="M11.128 21c-.015 0-.03 0-.046-.003l-.601-.078a.38.38 0 0 1-.07-.016c-.974-.33-1.514-.967-2.086-1.642l-.197-.232c-2.34-2.726-4.157-5.75-5.72-9.519l-.116-.279C1.742 7.912 1.06 6.271 1 4.7c0-.019.001-.039.004-.058l.014-.11a.348.348 0 0 1 .019-.074C1.847 2.294 3.54 1.13 6.068 1a.55.55 0 0 1 .067.003l.3.039a.36.36 0 0 1 .262.17c.811 1.355 1.397 2.947 1.74 4.733a.348.348 0 0 1-.095.309c-.597.597-1.382.986-2.337 1.16l.036.06.56 1.017c1.202 2.187 2.444 4.444 3.688 6.575.584-.612 1.344-.958 2.094-1.237a.364.364 0 0 1 .354.057c1.249 1.007 2.272 2.284 3.22 4.018.036.065.05.139.04.21l-.01.074a.348.348 0 0 1-.046.131c-1.017 1.689-2.632 2.59-4.797 2.681h-.016z"/>
</svg>
